<?xml version="1.0" standalone="no"?>
<!DOCTYPE svg PUBLIC "-//W3C//DTD SVG 1.1//EN" "http://www.w3.org/Graphics/SVG/1.1/DTD/svg11.dtd" >
<svg xmlns="http://www.w3.org/2000/svg">
<metadata></metadata>
<defs>
<font id="passion_oneregular" horiz-adv-x="1024" >
<font-face units-per-em="2048" ascent="1638" descent="-410" />
<missing-glyph horiz-adv-x="430" />
<glyph horiz-adv-x="2048" />
<glyph horiz-adv-x="2048" />
<glyph unicode="&#xd;" horiz-adv-x="2048" />
<glyph unicode=" "  horiz-adv-x="430" />
<glyph unicode="&#x09;" horiz-adv-x="430" />
<glyph unicode="&#xa0;" horiz-adv-x="430" />
<glyph unicode="!" horiz-adv-x="610" d="M160 139q0 83 43 122.5t139 39.5q93 0 135.5 -40.5t42.5 -125.5q0 -158 -178 -158q-182 0 -182 162zM164 1272h348l-29 -883h-297z" />
<glyph unicode="&#x22;" horiz-adv-x="894" d="M78 825l127 166l-4 10q-109 23 -109 150q0 162 182 162q91 0 137 -47t46 -136q0 -107 -66.5 -189.5t-191.5 -160.5zM487 825l127 166l-4 10q-108 23 -108 150q0 162 182 162t182 -183q0 -107 -66.5 -189.5t-191.5 -160.5z" />
<glyph unicode="#" horiz-adv-x="1015" d="M49 315v256h152l16 88h-123v252h154l45 310h266l-41 -310h55l41 310h267l-41 -310h127v-252h-160l-16 -88h133v-256h-166l-41 -315h-258l37 315h-60l-47 -315h-270l47 315h-117zM457 559h80l18 113h-80z" />
<glyph unicode="$" horiz-adv-x="940" d="M66 889q0 150 72.5 252.5t205.5 136.5v192h270v-184q93 -7 230 -31l-41 -327q-200 47 -279 47q-96 0 -96 -78q0 -23 24.5 -44t64 -40.5t87 -43t95 -57t87 -75.5t64 -107t24.5 -143q0 -155 -66.5 -255t-193.5 -134v-160h-270v148q-134 15 -244 53l23 305 q118 -34 185.5 -48.5t127.5 -14.5q78 0 78 75q0 26 -19 49t-51 40t-72 38.5t-82 43.5t-82 56t-72 74t-51 100t-19 132z" />
<glyph unicode="%" horiz-adv-x="1660" d="M66 834q0 95 7.5 162.5t27.5 126.5t54.5 94t89 55t130.5 20t131 -20t89.5 -55t54 -94t27 -126.5t7.5 -162.5t-7.5 -162.5t-27 -127t-54 -95.5t-89.5 -56t-131 -20q-75 0 -129.5 20t-89 56t-55 95t-28 127.5t-7.5 162.5zM297 825q0 -53 0.5 -77.5t2.5 -61t7 -52t14 -33.5 t23.5 -24t34.5 -6q28 0 44 13.5t22.5 53t8 74t1.5 113.5v23q0 46 -0.5 68t-2.5 55t-7 48t-13.5 32t-22.5 23.5t-34 6.5q-28 0 -45 -14t-23.5 -51.5t-8 -68.5t-1.5 -99v-23zM526 -20l367 1312h242l-369 -1312h-240zM977 440q0 95 7.5 162.5t27.5 126.5t54.5 94.5t89 55.5 t130.5 20t131 -20t89.5 -55.5t54 -94.5t27 -126.5t7.5 -162.5q0 -119 -12.5 -198.5t-45 -141.5t-94.5 -91t-157 -29q-75 0 -129.5 20t-89 56t-55 94.5t-28 127t-7.5 162.5zM1208 432q0 -53 0.5 -77.5t2.5 -61t7 -52t14 -33.5t23.5 -24t34.5 -6q28 0 44 13.5t22.5 53t8 74 t1.5 113.5v23q0 46 -0.5 68t-2.5 55t-7 48t-13.5 32t-22.5 23.5t-34 6.5q-28 0 -45 -14t-23.5 -51.5t-8 -68.5t-1.5 -99v-23z" />
<glyph unicode="&#x26;" horiz-adv-x="1247" d="M66 373q0 72 15.5 127.5t46.5 95.5t67 68t88 55q-101 127 -101 264q0 170 91 253t284 83q194 0 287.5 -83t93.5 -237q0 -134 -50.5 -212.5t-180.5 -151.5l155 -195h8q25 54 25 142v88h270v-70q0 -119 -27.5 -200.5t-93.5 -149.5v-14h168l-20 -256h-105q-110 0 -167 14 t-123 57q-71 -38 -139.5 -54.5t-176.5 -16.5q-200 0 -307.5 100t-107.5 293zM391 379q0 -59 30.5 -93t88.5 -34h125v8l-193 234q-28 -23 -39.5 -47.5t-11.5 -67.5zM500 944q0 -13 3 -25t6 -20t11 -20t12.5 -17t17 -19t17.5 -20q32 28 43.5 40t21 31.5t9.5 45.5 q0 41 -17 58.5t-53 17.5q-38 0 -54.5 -17.5t-16.5 -54.5z" />
<glyph unicode="'" horiz-adv-x="485" d="M78 825l127 166l-4 10q-109 23 -109 150q0 162 182 162q91 0 137 -47t46 -136q0 -107 -66.5 -189.5t-191.5 -160.5z" />
<glyph unicode="(" horiz-adv-x="675" d="M49 522q0 250 85.5 447.5t254.5 359.5l254 -108q-110 -166 -160.5 -335t-50.5 -362q0 -190 51.5 -361t159.5 -351l-262 -88q-79 87 -133.5 162.5t-102.5 172.5t-72 212.5t-24 250.5z" />
<glyph unicode=")" horiz-adv-x="675" d="M33 -188q108 180 159.5 351t51.5 361q0 193 -50.5 362t-160.5 335l254 108q169 -162 254.5 -359.5t85.5 -447.5q0 -135 -24 -250.5t-72 -212.5t-102.5 -172.5t-133.5 -162.5z" />
<glyph unicode="*" horiz-adv-x="868" d="M41 915l55 201l209 -45l21 203h225l18 -205l199 41l59 -197l-198 -73l147 -191l-184 -123l-150 172l-141 -170l-186 123l121 191z" />
<glyph unicode="+" horiz-adv-x="987" d="M106 473v258h250v279h267v-279h258v-258h-258v-276h-267v276h-250z" />
<glyph unicode="," horiz-adv-x="622" d="M154 -186l129 170l-4 10q-111 30 -111 145q0 80 44 122t128 42q190 0 190 -188q0 -44 -15 -85.5t-35.5 -73t-59 -68t-68 -60t-78.5 -59.5z" />
<glyph unicode="-" horiz-adv-x="825" d="M98 395v275h629v-275h-629z" />
<glyph unicode="." horiz-adv-x="606" d="M154 139q0 83 43 122.5t139 39.5q93 0 135.5 -40.5t42.5 -125.5q0 -158 -178 -158q-182 0 -182 162z" />
<glyph unicode="/" horiz-adv-x="739" d="M-20 -301l440 1573h340l-443 -1573h-337z" />
<glyph unicode="0" horiz-adv-x="968" d="M47 637q0 112 7.5 196.5t25.5 161.5t50 129.5t80.5 91.5t117.5 57.5t159 18.5q109 0 187.5 -28.5t128 -79t78 -134.5t39 -181t10.5 -232q0 -112 -7.5 -196t-25.5 -161.5t-50 -130t-81 -92t-118.5 -58.5t-160.5 -19q-77 0 -138.5 14.5t-107 41.5t-79.5 70t-56 95 t-35 121.5t-18.5 144.5t-5.5 170zM379 627q0 -76 0.5 -111t3.5 -87.5t10.5 -75t20 -48t33 -34.5t49.5 -9q39 0 61 19.5t31.5 77t11.5 106.5t2 162v30q0 67 -0.5 98t-3.5 79t-10.5 69.5t-19.5 45.5t-32.5 33t-48.5 9q-27 0 -45.5 -8.5t-30.5 -32.5t-18.5 -45t-9.5 -68 t-3.5 -78t-0.5 -96v-6v-30z" />
<glyph unicode="1" horiz-adv-x="655" d="M37 946v215l209 111h280v-1272h-342v946h-147z" />
<glyph unicode="2" horiz-adv-x="845" d="M16 1186q107 58 196.5 82t203.5 24q194 0 296.5 -100t102.5 -287q0 -77 -14.5 -145t-34 -117.5t-65 -115t-80 -108t-107.5 -126.5h305v-293h-751l-17 209q87 91 135 144t110 128t93.5 127t54.5 111.5t23 111.5q0 57 -29.5 90t-85.5 33q-38 0 -82.5 -12t-76.5 -25.5 t-111 -48.5z" />
<glyph unicode="3" horiz-adv-x="876" d="M45 1184q113 60 200 84t199 24q385 0 385 -334q0 -100 -36 -165t-121 -119v-8q94 -42 135 -112.5t41 -184.5q0 -186 -106 -287.5t-310 -101.5q-100 0 -171 17t-181 64l72 287q168 -61 235 -61q52 0 74 26.5t22 79.5q0 63 -32.5 89t-96.5 26h-127v268h129q58 0 81.5 26 t23.5 77q0 49 -21.5 73.5t-74.5 24.5q-67 0 -240 -70z" />
<glyph unicode="4" horiz-adv-x="1007" d="M20 492l420 780h422v-748h158l-14 -276h-144v-248h-342v248h-465zM350 524h180v314h-12z" />
<glyph unicode="5" horiz-adv-x="845" d="M63 43l25 317q209 -63 285 -63q104 0 104 115q0 58 -19 85t-61 27q-39 0 -59 -41l-272 41v748h688v-305h-371v-183q56 29 135 29q293 0 293 -381q0 -452 -401 -452q-187 0 -347 63z" />
<glyph unicode="6" horiz-adv-x="940" d="M47 547q0 385 186 565t584 180l-20 -293q-175 0 -268 -44t-128 -160l5 -11q77 25 167 25q164 0 254.5 -93t90.5 -284q0 -452 -418 -452q-226 0 -339.5 144t-113.5 423zM387 473q0 -104 27.5 -156.5t89.5 -52.5q51 0 73.5 32.5t22.5 106.5q0 72 -25.5 105t-85.5 33 q-45 0 -98 -15q-4 -32 -4 -53z" />
<glyph unicode="7" horiz-adv-x="860" d="M20 946v326h807v-191l-350 -1081h-385l342 946h-414z" />
<glyph unicode="8" horiz-adv-x="950" d="M45 346q0 199 164 289v8q-43 38 -65 61.5t-46 61t-33.5 83t-9.5 107.5q0 156 110 246t308 90q203 0 310.5 -89.5t107.5 -248.5q0 -60 -8.5 -102t-30.5 -76.5t-46 -58.5t-69 -60v-8q87 -51 127.5 -118t40.5 -171q0 -192 -110.5 -286t-321.5 -94q-197 0 -312.5 92.5 t-115.5 273.5zM377 362q0 -118 104 -118q99 0 99 104q0 50 -26.5 81t-94.5 79q-43 -39 -62.5 -69.5t-19.5 -76.5zM383 918q0 -49 24.5 -78.5t86.5 -73.5q31 26 47 42.5t29.5 41.5t13.5 53q0 53 -26.5 82t-78.5 29q-96 0 -96 -96z" />
<glyph unicode="9" horiz-adv-x="940" d="M25 870q0 422 415 422q238 0 343.5 -129t105.5 -405q0 -155 -24 -274.5t-79.5 -216.5t-144.5 -159t-220.5 -95t-305.5 -33l20 290q128 0 209 23t124 69t64 123l-4 11q-82 -21 -153 -21q-168 0 -259 93t-91 302zM340 866q0 -75 24.5 -110t81.5 -35q56 0 105 18q2 16 2 49 q0 108 -23.5 160.5t-95.5 52.5q-51 0 -72.5 -32.5t-21.5 -102.5z" />
<glyph unicode=":" horiz-adv-x="606" d="M154 139q0 83 43 122.5t139 39.5q93 0 135.5 -40.5t42.5 -125.5q0 -158 -178 -158q-182 0 -182 162zM154 739q0 83 43 122.5t139 39.5q93 0 135.5 -40.5t42.5 -125.5q0 -157 -178 -157q-182 0 -182 161z" />
<glyph unicode=";" horiz-adv-x="622" d="M139 -186l127 166l-4 10q-108 23 -108 149q0 162 182 162t182 -182q0 -107 -66.5 -189.5t-191.5 -160.5zM154 739q0 83 43 122.5t139 39.5q93 0 135.5 -40.5t42.5 -125.5q0 -157 -178 -157q-182 0 -182 161z" />
<glyph unicode="&#x3c;" horiz-adv-x="806" d="M68 475v141l510 474l167 -232l-339 -311l339 -305l-176 -236z" />
<glyph unicode="=" horiz-adv-x="929" d="M111 186v279h708v-279h-708zM111 600v279h708v-279h-708z" />
<glyph unicode="&#x3e;" horiz-adv-x="806" d="M61 242l340 305l-340 311l168 232l510 -474v-141l-501 -469z" />
<glyph unicode="?" horiz-adv-x="792" d="M111 967v309q169 43 290 43q175 0 254.5 -88.5t79.5 -280.5q0 -82 -18 -146t-54 -111t-74 -78.5t-95 -65.5l-21 -12v-125h-268v194q0 67 21 104.5t75 63.5q39 19 55.5 28t40 26.5t32.5 37t9 45.5q0 55 -22.5 79t-79.5 24q-49 0 -225 -47zM168 131q0 162 182 162 q89 0 129.5 -41.5t40.5 -120.5q0 -78 -39.5 -116t-130.5 -38q-95 0 -138.5 38t-43.5 116z" />
<glyph unicode="@" horiz-adv-x="1814" d="M49 471q0 186 63.5 348.5t178.5 282.5t286 189t375 69q194 0 348.5 -57t256 -161.5t155 -251t53.5 -325.5q0 -123 -32.5 -228.5t-95 -185.5t-160 -125.5t-220.5 -45.5h-18q-171 0 -233 104h-11q-38 -53 -90.5 -78.5t-142.5 -25.5q-121 0 -185.5 77t-64.5 213 q0 71 20.5 124t55 87t92 56.5t120 34.5t150.5 20v49q0 57 -57 57q-93 0 -299 -59l-49 293q90 23 148.5 36.5t140.5 25.5t151 12q159 0 229 -68t70 -213q0 -62 -5 -203t-5 -213q0 -39 12 -56t39 -17q67 0 111.5 93t44.5 242q0 241 -140.5 388t-392.5 147q-152 0 -270.5 -47 t-193 -131t-112.5 -195.5t-38 -245.5q0 -314 152.5 -465t418.5 -151q141 0 369 41v-240q-185 -45 -387 -45q-140 0 -263 30.5t-229.5 96.5t-182.5 163t-119.5 238.5t-43.5 315.5zM825 295q0 -76 64 -76q76 0 76 80v100q-75 -10 -107.5 -31.5t-32.5 -72.5z" />
<glyph unicode="A" horiz-adv-x="1019" d="M16 0l234 1272h520l234 -1272h-342l-39 201h-242l-39 -201h-326zM426 440h158l-72 455h-14z" />
<glyph unicode="B" horiz-adv-x="1013" d="M90 0v1272h492q195 0 289 -79.5t94 -246.5q0 -95 -35 -157.5t-107 -108.5v-12q162 -63 162 -301q0 -178 -93.5 -272.5t-299.5 -94.5h-502zM444 227h66q62 0 83 28t21 114q0 88 -22 123.5t-82 35.5h-66v-301zM444 727h68q46 0 65 28.5t19 100.5q0 73 -19.5 103t-66.5 30 h-66v-262z" />
<glyph unicode="C" horiz-adv-x="839" d="M49 625q0 160 27 280.5t85 208.5t154.5 133t231.5 45q156 0 297 -65l-56 -318q-160 54 -223 54q-90 0 -124.5 -78.5t-34.5 -261.5q0 -179 35.5 -256.5t129.5 -77.5q74 0 220 39l53 -289q-159 -59 -326 -59q-245 0 -357 163t-112 482z" />
<glyph unicode="D" horiz-adv-x="1077" d="M90 0v1272h430q116 0 205 -28.5t147.5 -79.5t95.5 -128t52.5 -167.5t15.5 -204.5q0 -117 -15 -213t-52.5 -181.5t-96.5 -143.5t-150 -92t-210 -34h-422zM438 295h68q46 0 77.5 15t50 40t28.5 70.5t13 91t3 117.5t-3.5 120t-14 92t-30 68.5t-52 39t-78.5 14.5h-62v-668z " />
<glyph unicode="E" horiz-adv-x="827" d="M90 0v1272h709l-21 -314h-338v-190h293v-270h-293v-211h359l-21 -287h-688z" />
<glyph unicode="F" horiz-adv-x="788" d="M90 0v1272h709l-21 -314h-338v-190h273v-270h-273v-498h-350z" />
<glyph unicode="G" horiz-adv-x="1062" d="M53 627q0 125 15 224.5t50.5 183.5t92 139.5t140.5 86.5t194 31q215 0 366 -65l-55 -334q-195 59 -278 59q-42 0 -73 -16t-49 -42t-28.5 -69t-14 -87t-3.5 -105q0 -74 3.5 -124t13.5 -94.5t27.5 -70.5t46.5 -40.5t70 -14.5q17 0 33 1.5t25 3.5t26 5.5t27 5.5v156h-92v241 h391v-702h-242l-32 66h-9q-35 -29 -54.5 -43t-63.5 -28.5t-99 -14.5q-428 0 -428 647z" />
<glyph unicode="H" horiz-adv-x="1112" d="M90 0v1272h352v-500h240v500h348v-1272h-348v481h-240v-481h-352z" />
<glyph unicode="I" horiz-adv-x="569" d="M111 0v1272h348v-1272h-348z" />
<glyph unicode="J" horiz-adv-x="589" d="M33 258h69q34 0 44 9.5t10 39.5v965h344v-1016q0 -158 -71.5 -217t-264.5 -59h-105z" />
<glyph unicode="K" horiz-adv-x="993" d="M90 0v1272h340v-533h21l184 533h377l-248 -658l227 -614h-387l-153 479h-21v-479h-340z" />
<glyph unicode="L" horiz-adv-x="741" d="M90 0v1272h350v-987h318l-21 -285h-647z" />
<glyph unicode="M" horiz-adv-x="1398" d="M78 0l43 1272h461l114 -688h17l110 688h455l43 -1272h-322v664h-18l-121 -664h-330l-114 664h-21v-664h-317z" />
<glyph unicode="N" horiz-adv-x="1107" d="M90 0v1272h346l252 -610h17v610h313v-1272h-336l-264 592h-17v-592h-311z" />
<glyph unicode="O" horiz-adv-x="1101" d="M49 641q0 344 117.5 497.5t386.5 153.5q268 0 384 -152t116 -485q0 -349 -119 -512t-387 -163q-264 0 -381 162t-117 499zM406 600q0 -83 4 -135.5t13 -92t27.5 -59t43.5 -28.5t65 -9q88 0 114.5 60t26.5 246v65q0 189 -29 255.5t-124 66.5q-88 0 -114.5 -66.5 t-26.5 -253.5v-49z" />
<glyph unicode="P" horiz-adv-x="950" d="M90 0v1272h416q220 0 326 -100.5t106 -329.5q0 -230 -100.5 -328t-309.5 -98h-94v-416h-344zM434 657h58q56 0 75 35t19 125t-21 127t-82 37h-49v-324z" />
<glyph unicode="Q" horiz-adv-x="1101" d="M49 641q0 344 117.5 497.5t386.5 153.5q268 0 384 -152t116 -485q0 -217 -54 -353t-170 -224v-8l258 -23l-22 -264h-39q-76 0 -138.5 15.5t-129.5 54.5l-219 127q-255 0 -372.5 168.5t-117.5 492.5zM406 600q0 -83 4 -135.5t13 -92t27.5 -59t43.5 -28.5t65 -9 q88 0 114.5 60t26.5 246v65q0 189 -29 255.5t-124 66.5q-88 0 -114.5 -66.5t-26.5 -253.5v-49z" />
<glyph unicode="R" horiz-adv-x="1011" d="M90 0v1272h475q204 0 300 -96t96 -308q0 -115 -34.5 -190t-109.5 -137l170 -541h-379l-127 459h-47v-459h-344zM434 674h53q54 0 76.5 31t22.5 116q0 75 -23.5 107.5t-73.5 32.5h-55v-287z" />
<glyph unicode="S" horiz-adv-x="874" d="M33 889q0 183 106.5 293t292.5 110q177 0 379 -37l-41 -327q-200 47 -278 47q-97 0 -97 -78q0 -23 24.5 -44t64 -40.5t87 -43t95.5 -57t87.5 -75.5t64 -107t24.5 -143q0 -194 -104 -300.5t-302 -106.5q-188 0 -368 59l22 305q118 -34 185.5 -48.5t127.5 -14.5q78 0 78 75 q0 26 -19.5 49t-50.5 40t-71.5 38.5t-82.5 43.5t-82.5 56t-71.5 74t-50.5 100t-19.5 132z" />
<glyph unicode="T" horiz-adv-x="839" d="M-10 963l20 309h840l-21 -309h-237v-963h-350v963h-252z" />
<glyph unicode="U" horiz-adv-x="1112" d="M90 395v877h359v-854q0 -64 26 -94.5t86 -30.5q61 0 85 30t24 97v852h352v-873q0 -220 -120 -319.5t-355 -99.5q-229 0 -343 99t-114 316z" />
<glyph unicode="V" horiz-adv-x="1034" d="M25 1272h387l110 -834h35l84 834h369l-215 -1272h-541z" />
<glyph unicode="W" horiz-adv-x="1394" d="M41 1272h336l53 -674h21l86 674h342l94 -674h20l37 674h324l-115 -1272h-422l-110 563h-17l-92 -563h-424z" />
<glyph unicode="X" horiz-adv-x="999" d="M12 0l199 659l-182 613h413l70 -377h16l76 377h361l-166 -613l188 -659h-399l-86 406h-17l-96 -406h-377z" />
<glyph unicode="Y" horiz-adv-x="950" d="M0 1272h385l92 -414h17l88 414h368l-303 -879v-393h-348v393z" />
<glyph unicode="Z" horiz-adv-x="925" d="M20 1272h865l10 -201l-356 -778h366v-293h-835l-9 188l375 766h-395z" />
<glyph unicode="[" horiz-adv-x="647" d="M98 -281v1594h484v-264h-136v-1067h136v-263h-484z" />
<glyph unicode="\" horiz-adv-x="739" d="M-20 1272h339l441 -1573h-338z" />
<glyph unicode="]" horiz-adv-x="647" d="M66 -18h135v1067h-135v264h483v-1594h-483v263z" />
<glyph unicode="^" d="M223 1065l135 276h310l133 -276h-215l-72 115l-72 -115h-219z" />
<glyph unicode="_" horiz-adv-x="823" d="M0 -68h823v-213h-823v213z" />
<glyph unicode="`" d="M236 1352h323l133 -287h-235z" />
<glyph unicode="a" horiz-adv-x="892" d="M29 270q0 71 20.5 124t55 87t92 56.5t120 34.5t150.5 20v49q0 57 -57 57q-102 0 -308 -59l-51 299q263 68 451 68q159 0 229 -68t70 -213q0 -62 -5 -207t-5 -217q0 -38 19 -51.5t67 -13.5l-31 -248q-118 -8 -131 -8q-153 0 -193 104h-10q-38 -53 -90.5 -78.5 t-142.5 -25.5q-121 0 -185.5 77t-64.5 213zM342 295q0 -76 64 -76q75 0 75 80v100q-75 -10 -107 -31.5t-32 -72.5z" />
<glyph unicode="b" horiz-adv-x="954" d="M61 0v1313h342v-355h9q29 19 77.5 32.5t96.5 13.5q80 0 136.5 -20t92.5 -56.5t55.5 -99.5t27 -135.5t7.5 -178.5q0 -108 -7.5 -185.5t-29 -147t-58 -111.5t-96 -66t-141.5 -24q-155 0 -215 79h-8l-20 -59h-269zM401 264q40 -18 82 -18q19 0 32 6t22 22t13.5 31.5t7 48 t3 58t0.5 73.5q0 61 -2 96.5t-10 69t-24.5 48t-43.5 14.5q-35 0 -80 -25v-424z" />
<glyph unicode="c" horiz-adv-x="706" d="M45 473q0 156 42.5 274t134 188.5t222.5 70.5q145 0 263 -50l-37 -301q-119 52 -185 52q-55 0 -75.5 -54t-20.5 -166q0 -118 19.5 -169.5t76.5 -51.5q65 0 168 23l37 -262q-139 -47 -252 -47q-195 0 -294 131t-99 362z" />
<glyph unicode="d" horiz-adv-x="976" d="M49 500q0 247 83.5 376.5t242.5 129.5q108 0 168 -52v359h342v-1012q0 -38 16.5 -51.5t59.5 -13.5l-31 -248q-1 0 -53.5 -4t-83.5 -4q-157 0 -193 104h-10q-68 -104 -207 -104q-184 0 -259 129.5t-75 390.5zM393 489q0 -48 0.5 -73.5t3 -58t7 -48t13.5 -31.5t22 -22 t32 -6q42 0 82 18v424q-45 25 -80 25q-27 0 -43.5 -14.5t-24.5 -48t-10 -69t-2 -96.5z" />
<glyph unicode="e" horiz-adv-x="905" d="M45 494q0 512 434 512q212 0 302.5 -101.5t90.5 -290.5q0 -25 -14 -221h-467q0 -153 141 -153q18 0 34.5 1t38 4.5t33.5 5t40 8t35.5 8t42.5 10.5t41 10l28 -254q-171 -53 -344 -53q-211 0 -323.5 138.5t-112.5 375.5zM385 567h178v49q0 48 -21 72.5t-71 24.5 q-52 0 -69 -36.5t-17 -109.5z" />
<glyph unicode="f" horiz-adv-x="600" d="M18 698v254h91v103q0 132 68.5 202t207.5 70q126 0 266 -12l-28 -299q-92 10 -140 10q-37 0 -37 -37v-37h168l-16 -254h-147v-698h-342v698h-91z" />
<glyph unicode="g" horiz-adv-x="921" d="M39 172q0 67 40.5 111t117.5 75q-75 54 -110.5 125t-35.5 187q0 162 105.5 249t283.5 87h484v-230h-148v-10q66 -58 66 -150q0 -327 -371 -327h-98q-37 0 -37 -35q0 -33 35 -33h278q236 0 236 -205q0 -167 -113 -242t-338 -75q-81 0 -142 8t-117 28t-86 61.5t-30 101.5 q0 36 20 60t60 46v8q-49 28 -74.5 64t-25.5 96zM326 -51v-8q0 -31 32 -31h211q37 0 37 33v8q0 31 -37 31h-211q-32 0 -32 -33zM387 616q0 -62 17 -93t57 -31q39 0 54 29.5t15 90.5q0 67 -15.5 96t-57.5 29q-39 0 -54.5 -29.5t-15.5 -91.5z" />
<glyph unicode="h" horiz-adv-x="956" d="M61 0v1313h342v-404h9q34 29 61.5 47t77.5 34t108 16q127 0 181.5 -63t54.5 -187v-756h-348v639q0 51 -45 51q-57 0 -96 -28v-662h-345z" />
<glyph unicode="i" horiz-adv-x="475" d="M53 1167q0 83 43.5 121.5t143.5 38.5q97 0 139.5 -38.5t42.5 -121.5q0 -79 -42.5 -117t-139.5 -38q-100 0 -143.5 37t-43.5 118zM70 0v971h338v-971h-338z" />
<glyph unicode="j" horiz-adv-x="507" d="M-37 -18h70q34 0 43.5 9.5t9.5 39.5v940h342v-996q0 -159 -70.5 -217.5t-263.5 -58.5h-102zM68 1167q0 83 43 121.5t143 38.5q97 0 139.5 -38.5t42.5 -121.5q0 -79 -42.5 -117t-139.5 -38q-100 0 -143 37t-43 118z" />
<glyph unicode="k" horiz-adv-x="905" d="M61 0v1313h338v-723h9l149 391h358l-206 -489l198 -492h-379l-125 377h-8v-377h-334z" />
<glyph unicode="l" horiz-adv-x="477" d="M61 225v1088h338v-979q0 -34 16 -49t54 -15l-27 -290h-112q-136 0 -202.5 56.5t-66.5 188.5z" />
<glyph unicode="m" horiz-adv-x="1445" d="M61 0v981h314l20 -72h8q114 97 256 97q165 0 213 -115l21 18q114 97 256 97q127 0 181 -63t54 -187v-756h-348v639q0 51 -45 51q-57 0 -96 -28v-662h-348v639q0 51 -45 51q-57 0 -96 -28v-662h-345z" />
<glyph unicode="n" horiz-adv-x="956" d="M61 0v981h314l20 -72h8q114 97 256 97q127 0 181.5 -63t54.5 -187v-756h-348v639q0 51 -45 51q-57 0 -96 -28v-662h-345z" />
<glyph unicode="o" horiz-adv-x="937" d="M45 494q0 269 103 390.5t325 121.5q219 0 319.5 -119t100.5 -379q0 -282 -98.5 -405t-321.5 -123q-224 0 -326 122.5t-102 391.5zM389 467q0 -145 14 -188t72 -43q48 0 62 42.5t14 176.5v59q0 133 -13.5 174t-66.5 41t-67.5 -41.5t-14.5 -171.5v-49z" />
<glyph unicode="p" horiz-adv-x="954" d="M61 -281v1262h283l21 -61h10q57 84 211 84q182 0 250.5 -117t68.5 -377q0 -106 -9 -185t-32 -147t-61 -110.5t-97.5 -66.5t-140.5 -24q-50 0 -83 10t-68 36h-8v-304h-345zM401 264q40 -18 82 -18q19 0 32 6t22 22t13.5 31.5t7 48t3 58t0.5 73.5q0 61 -2 96.5t-10 69 t-24.5 48t-43.5 14.5q-35 0 -80 -25v-424z" />
<glyph unicode="q" horiz-adv-x="954" d="M49 500q0 241 84.5 373.5t241.5 132.5q142 0 205 -86h10l20 61h283v-1262h-344v312h-8q-71 -51 -156 -51q-184 0 -260 129.5t-76 390.5zM393 489q0 -48 0.5 -73.5t3 -58t7 -48t13.5 -31.5t22 -22t32 -6q42 0 82 18v424q-45 25 -80 25q-27 0 -43.5 -14.5t-24.5 -48 t-10 -69t-2 -96.5z" />
<glyph unicode="r" horiz-adv-x="641" d="M61 0v981h299l21 -59h8q46 53 95 68.5t157 15.5l-14 -328h-95q-80 0 -105.5 -24.5t-25.5 -102.5v-551h-340z" />
<glyph unicode="s" horiz-adv-x="700" d="M8 686q0 155 90.5 237.5t257.5 82.5q157 0 318 -41l-35 -285q-204 47 -281 47q-43 0 -43 -35q0 -24 47 -41q62 -23 105.5 -43t89 -50.5t73 -65t45 -84t17.5 -109.5q0 -161 -78 -240t-260 -79q-145 0 -299 40l23 277q202 -55 278 -55q47 0 47 30q0 17 -9.5 25.5 t-35.5 17.5q-90 35 -148 65.5t-107 73.5t-72 100t-23 132z" />
<glyph unicode="t" horiz-adv-x="649" d="M16 715v254h115l19 188h309v-188h182l-14 -254h-170v-408q0 -23 9.5 -33t31.5 -10q4 0 127 6l-11 -272q-151 -18 -241 -18q-134 0 -196 58.5t-62 201.5v475h-99z" />
<glyph unicode="u" horiz-adv-x="956" d="M61 250v731h349v-647q0 -51 45 -51q57 0 96 28v670h344v-977h-326v72h-8q-112 -96 -256 -96q-126 0 -185 72t-59 198z" />
<glyph unicode="v" horiz-adv-x="903" d="M0 981h360l89 -629h26l94 629h334l-209 -981h-483z" />
<glyph unicode="w" horiz-adv-x="1183" d="M10 981h316l43 -496h16l70 496h284l68 -496h18l45 496h304l-125 -981h-375l-80 414h-14l-78 -414h-367z" />
<glyph unicode="x" horiz-adv-x="886" d="M12 0l166 477l-166 504h373l59 -313h13l63 313h350l-163 -498l167 -483h-362l-70 289h-12l-65 -289h-353z" />
<glyph unicode="y" horiz-adv-x="911" d="M0 981h365l92 -612h18l100 612h336l-254 -1010q-26 -103 -64 -159.5t-109 -84.5t-189 -28h-205l-31 264h115q38 0 54 13.5t16 41.5q0 14 -8 54z" />
<glyph unicode="z" horiz-adv-x="804" d="M25 694v287h735l12 -182l-293 -516h301v-283h-735l-8 197l303 497h-315z" />
<glyph unicode="{" horiz-adv-x="686" d="M16 397v262q75 0 93 11t18 65v297q0 155 55.5 218t192.5 63h225v-273h-139v-327q0 -81 -22.5 -117.5t-76.5 -63.5v-14q54 -22 76.5 -60.5t22.5 -115.5v-362h139v-261h-225q-132 0 -190 61.5t-58 203.5v335q0 55 -19 66.5t-92 11.5z" />
<glyph unicode="|" horiz-adv-x="690" d="M184 -301v1573h322v-1573h-322z" />
<glyph unicode="}" horiz-adv-x="686" d="M86 -20h139v362q0 77 22.5 115.5t76.5 60.5v14q-54 27 -76.5 63.5t-22.5 117.5v327h-139v273h225q137 0 192.5 -63t55.5 -218v-297q0 -54 18 -65t93 -11v-262q-73 0 -92 -11.5t-19 -66.5v-335q0 -142 -58 -203.5t-190 -61.5h-225v261z" />
<glyph unicode="~" d="M221 1047v20q0 133 39 199.5t137 66.5q27 0 55.5 -5.5t74.5 -18.5t53 -15l41 -10v68h221v-17q0 -50 -3.5 -86t-15 -72t-31.5 -58t-54 -36t-81 -14q-69 0 -163 33l-50 16v-71h-223z" />
<glyph unicode="&#xa1;" horiz-adv-x="610" d="M111 856q0 158 178 158q182 0 182 -162q0 -83 -43 -122.5t-139 -39.5q-93 0 -135.5 40.5t-42.5 125.5zM119 -281l28 883h297l23 -883h-348z" />
<glyph unicode="&#xa2;" horiz-adv-x="813" d="M70 473q0 178 59.5 308.5t173.5 187.5v194h270v-166q79 -9 158 -41l-37 -301q-119 52 -184 52q-55 0 -75.5 -54t-20.5 -166q0 -118 19.5 -169.5t76.5 -51.5q64 0 168 23l37 -262q-69 -23 -142 -37v-152h-270v172q-115 49 -174 168.5t-59 294.5z" />
<glyph unicode="&#xa3;" horiz-adv-x="1153" d="M25 221q0 113 67 176.5t172 63.5q68 0 123 -25h8v137h-190v205h141q-2 6 -13.5 39.5t-15.5 46.5t-11.5 40t-10 50t-2.5 47q0 144 82.5 217.5t242.5 73.5q131 0 345 -39l-41 -329q-176 39 -222 39q-20 0 -20 -25q0 -31 39 -160h190l-20 -205h-146v-124q0 -121 -41 -211 l97 -41h14v120h307q0 -199 -68.5 -296t-226.5 -97q-59 0 -111.5 11.5t-85.5 25.5t-91 43h-17q-97 -51 -207 -51q-135 0 -211.5 66t-76.5 202zM272 197q0 -41 47 -41q41 0 72 34q-17 17 -26.5 25.5t-24.5 15.5t-31 7q-18 0 -27.5 -12.5t-9.5 -28.5z" />
<glyph unicode="&#xa4;" horiz-adv-x="1595" d="M98 958l64 109l246 -141q141 184 393 184q263 0 401 -180l234 137q12 -21 30.5 -55.5t30.5 -53.5l-240 -139q27 -95 27 -190q0 -108 -41 -226l246 -145q-15 -26 -35.5 -57t-30.5 -47l-245 145q-143 -152 -377 -152q-238 0 -379 156q-18 -11 -110.5 -64.5t-139.5 -82.5 q-11 20 -61 102l254 148q-35 109 -35 223q0 89 24 180zM449 625q0 -186 92 -280.5t260 -94.5q356 0 356 377q0 180 -88.5 278.5t-267.5 98.5q-352 0 -352 -379z" />
<glyph unicode="&#xa5;" horiz-adv-x="1032" d="M41 1272h385l92 -414h17l88 414h368l-217 -625h154v-203h-223l-17 -51v-12h240v-199h-240v-182h-348v182h-234v199h234v12l-18 51h-216v203h148z" />
<glyph unicode="&#xa6;" horiz-adv-x="690" d="M184 -301v663h322v-663h-322zM184 666v606h322v-606h-322z" />
<glyph unicode="&#xa7;" horiz-adv-x="901" d="M66 559q0 95 24.5 159t71.5 126q-27 56 -27 127q0 170 101 263t262 93q38 0 75 -3.5t61.5 -8t70 -13.5t77.5 -14l-45 -309q-182 43 -241 43q-47 0 -47 -41q0 -21 21.5 -40.5t55.5 -38t75.5 -40.5t82.5 -54t75 -71t55.5 -98.5t21.5 -130.5q0 -107 -22 -171.5t-73 -139.5 q23 -59 23 -136q0 -172 -90 -267t-264 -95q-109 0 -314 41l25 321q219 -59 289 -59q53 0 53 57q0 29 -29.5 58t-73.5 54t-95.5 62t-95.5 78t-73.5 106t-29.5 142zM348 623q0 -31 12 -55.5t46 -53t61 -46.5t92 -58q2 6 2 28q0 18 -5 35.5t-10.5 30.5t-20 29t-24 25t-32.5 26 t-34.5 24.5t-41.5 27.5t-43 28q-2 -12 -2 -41z" />
<glyph unicode="&#xa8;" d="M223 1184q0 55 34 87t91 32q65 0 100 -31.5t35 -87.5q0 -58 -35 -89.5t-100 -31.5q-57 0 -91 32t-34 89zM569 1184q0 55 34.5 87t94.5 32q63 0 97 -31.5t34 -87.5q0 -57 -34 -89t-97 -32q-61 0 -95 32t-34 89z" />
<glyph unicode="&#xa9;" horiz-adv-x="1925" d="M82 479q0 412 234 649.5t638 237.5q280 0 481 -108t304.5 -307.5t103.5 -471.5q0 -205 -64 -372t-180 -279.5t-280.5 -173t-364.5 -60.5q-417 0 -644.5 232.5t-227.5 652.5zM410 473q0 -290 138.5 -438t403.5 -148q283 0 418 146.5t135 443.5q0 279 -137.5 432.5 t-413.5 153.5q-544 0 -544 -590zM590 471q0 248 90.5 378t294.5 130q121 0 242 -59l-50 -275q-127 43 -178 43t-70.5 -49.5t-19.5 -169.5q0 -117 20 -165t76 -48q59 0 174 33l48 -258q-155 -51 -265 -51q-190 0 -276 124.5t-86 366.5z" />
<glyph unicode="&#xaa;" horiz-adv-x="778" d="M102 793q0 119 74 165.5t234 59.5v35q0 41 -41 41q-77 0 -215 -43l-37 211q188 47 315 47q112 0 161.5 -48t49.5 -149q0 -44 -4 -145.5t-4 -151.5q0 -27 14 -37t47 -10l-22 -172q-62 -6 -92 -6q-106 0 -136 74h-6q-27 -38 -63.5 -56t-100.5 -18q-85 0 -129.5 54 t-44.5 149zM322 811q0 -53 45 -53q51 0 51 55v70q-52 -6 -74 -21.5t-22 -50.5z" />
<glyph unicode="&#xab;" horiz-adv-x="1079" d="M49 424v127l361 426l153 -123l-215 -358l217 -359l-168 -129zM479 424v127l355 426l157 -123l-215 -358l217 -359l-172 -129z" />
<glyph unicode="&#xac;" horiz-adv-x="999" d="M106 473v258h775v-465h-291v207h-484z" />
<glyph unicode="&#xad;" horiz-adv-x="825" d="M98 395v275h629v-275h-629z" />
<glyph unicode="&#xae;" horiz-adv-x="1925" d="M82 479q0 412 234 649.5t638 237.5q280 0 481 -108t304.5 -307.5t103.5 -471.5q0 -205 -64 -372t-180 -279.5t-280.5 -173t-364.5 -60.5q-417 0 -644.5 232.5t-227.5 652.5zM410 473q0 -290 138.5 -438t403.5 -148q222 0 373 113h-254l-102 299h-17v-299h-309v956h363 q163 0 248 -78t85 -235q0 -89 -21 -148.5t-73 -107.5l127 -330q133 160 133 420q0 279 -137.5 432.5t-413.5 153.5q-544 0 -544 -590zM938 516h49q66 0 66 84q0 44 -15.5 65t-54.5 21h-45v-170z" />
<glyph unicode="&#xaf;" d="M256 1085v236h553v-236h-553z" />
<glyph unicode="&#xb0;" horiz-adv-x="618" d="M74 1036q0 129 56 192.5t177 63.5q127 0 182.5 -61.5t55.5 -194.5q0 -132 -56 -193t-182 -61q-122 0 -177.5 61.5t-55.5 192.5zM256 1036q0 -40 11 -54.5t40 -14.5t41 15.5t12 53.5q0 40 -11.5 57t-41.5 17t-40.5 -17t-10.5 -57z" />
<glyph unicode="&#xb1;" horiz-adv-x="987" d="M106 0v258h775v-258h-775zM106 610v258h250v267h267v-267h258v-258h-258v-256h-267v256h-250z" />
<glyph unicode="&#xb2;" horiz-adv-x="741" d="M90 1217q75 40 138 57.5t141 17.5q136 0 208 -70.5t72 -201.5q0 -54 -10.5 -101.5t-24 -81.5t-46.5 -81.5t-55.5 -75t-74.5 -88.5h213v-205h-526l-12 145q75 79 117 126t88.5 107.5t67 109.5t20.5 94q0 39 -21.5 62.5t-60.5 23.5q-38 0 -76 -13t-113 -47z" />
<glyph unicode="&#xb3;" horiz-adv-x="743" d="M90 1217q78 41 140.5 58t140.5 17q268 0 268 -233q0 -70 -25 -116.5t-84 -84.5v-6q65 -29 94 -78.5t29 -128.5q0 -130 -75 -201t-216 -71q-70 0 -119 12t-128 45l51 201q115 -43 164 -43q37 0 52 18.5t15 55.5q0 81 -90 81h-88v187h90q40 0 56 18t16 53t-15 52.5 t-51 17.5q-51 0 -168 -49z" />
<glyph unicode="&#xb4;" d="M313 1065l129 287h328l-221 -287h-236z" />
<glyph unicode="&#xb6;" horiz-adv-x="1179" d="M41 831q0 223 120.5 345t334.5 122h573v-1564h-289v1321h-63v-1321h-291v661q-181 0 -283 113t-102 323z" />
<glyph unicode="&#xb7;" horiz-adv-x="708" d="M166 627q0 182 196 182q197 0 197 -182q0 -185 -197 -185q-99 0 -147.5 45t-48.5 140z" />
<glyph unicode="&#xb8;" d="M334 -291l69 129q83 -63 125 -63q25 0 25 20q0 18 -27 33l-34 20q-48 25 -48 74q0 34 31 62h133q-18 -18 -18 -35q0 -12 20.5 -25.5t45 -26t45 -39t20.5 -61.5q0 -67 -50.5 -107t-142.5 -40q-106 0 -194 59z" />
<glyph unicode="&#xb9;" horiz-adv-x="571" d="M90 1042v152l146 78h196v-891h-239v661h-103z" />
<glyph unicode="&#xba;" horiz-adv-x="794" d="M98 950q0 189 73 274t228 85q153 0 223 -83t70 -265q0 -198 -68.5 -284.5t-224.5 -86.5q-158 0 -229.5 85.5t-71.5 274.5zM340 932q0 -102 10 -133t49 -31q34 0 44 30t10 124v43q0 92 -9.5 120.5t-46.5 28.5t-47 -29t-10 -120v-33z" />
<glyph unicode="&#xbb;" horiz-adv-x="1079" d="M86 137l217 359l-215 358l158 123l354 -426v-127l-342 -416zM514 137l217 359l-215 358l154 123l360 -426v-127l-348 -416z" />
<glyph unicode="&#xbc;" horiz-adv-x="1638" d="M90 1042v152l146 78h196v-891h-239v661h-103zM401 -20l367 1312h242l-369 -1312h-240zM848 344l293 547h297v-524h110l-10 -193h-100v-174h-240v174h-326zM1079 367h125v219h-8z" />
<glyph unicode="&#xbd;" horiz-adv-x="1589" d="M90 1042v152l146 78h196v-891h-239v661h-103zM401 -20l367 1312h242l-369 -1312h-240zM938 829q75 41 138 58.5t141 17.5q136 0 208 -70.5t72 -201.5q0 -54 -10.5 -101.5t-24 -81.5t-46.5 -81.5t-55.5 -75t-74.5 -88.5h213v-205h-526l-12 145q75 78 117 125.5t88 108 t66.5 109.5t20.5 94q0 39 -21.5 62.5t-60.5 23.5q-38 0 -75 -13t-113 -47z" />
<glyph unicode="&#xbe;" horiz-adv-x="1798" d="M90 1217q78 41 140.5 58t140.5 17q268 0 268 -233q0 -70 -25 -116.5t-84 -84.5v-6q65 -29 94 -78.5t29 -128.5q0 -130 -75 -201t-216 -71q-70 0 -119 12t-128 45l51 201q115 -43 164 -43q37 0 52 18.5t15 55.5q0 81 -90 81h-88v187h90q40 0 56 18t16 53t-15 52.5 t-51 17.5q-51 0 -168 -49zM561 -20l367 1312h241l-368 -1312h-240zM1008 344l292 547h297v-524h111l-10 -193h-101v-174h-239v174h-326zM1239 367h125v219h-8z" />
<glyph unicode="&#xbf;" horiz-adv-x="792" d="M61 43q0 66 13.5 121t34 93t54.5 73t64.5 57t75.5 49l21 13v124h268v-206q0 -64 -20.5 -96.5t-75.5 -59.5q-40 -19 -55.5 -28t-40 -26.5t-33.5 -37t-9 -45.5q0 -55 23 -79t80 -24q49 0 225 47v-309q-169 -43 -291 -43q-162 0 -248 94t-86 283zM276 854q0 78 39.5 116 t130.5 38q95 0 139 -38t44 -116q0 -162 -183 -162q-89 0 -129.5 41.5t-40.5 120.5z" />
<glyph unicode="&#xc0;" horiz-adv-x="1019" d="M16 0l234 1272h520l234 -1272h-342l-39 201h-242l-39 -201h-326zM229 1632h308l127 -272h-224zM426 440h158l-72 455h-14z" />
<glyph unicode="&#xc1;" horiz-adv-x="1019" d="M16 0l234 1272h520l234 -1272h-342l-39 201h-242l-39 -201h-326zM350 1360l123 272h311l-209 -272h-225zM426 440h158l-72 455h-14z" />
<glyph unicode="&#xc2;" horiz-adv-x="1019" d="M16 0l234 1272h520l234 -1272h-342l-39 201h-242l-39 -201h-326zM229 1360l129 262h293l129 -262h-207l-67 108l-68 -108h-209zM426 440h158l-72 455h-14z" />
<glyph unicode="&#xc3;" horiz-adv-x="1019" d="M16 0l234 1272h520l234 -1272h-342l-39 201h-242l-39 -201h-326zM201 1341v21q0 126 37 189t129 63q20 0 45 -4t42 -8.5t46.5 -13t40.5 -11.5l39 -8v63h211v-16q0 -47 -3.5 -81t-14.5 -68t-30 -55.5t-51.5 -34.5t-77.5 -13q-60 0 -155 31l-47 16v-70h-211zM426 440h158 l-72 455h-14z" />
<glyph unicode="&#xc4;" horiz-adv-x="1019" d="M16 0l234 1272h520l234 -1272h-342l-39 201h-242l-39 -201h-326zM209 1473q0 52 31.5 82t85.5 30q62 0 95.5 -29.5t33.5 -82.5q0 -55 -33.5 -85t-95.5 -30q-54 0 -85.5 30.5t-31.5 84.5zM426 440h158l-72 455h-14zM537 1473q0 52 32.5 82t89.5 30q60 0 92.5 -29.5 t32.5 -82.5q0 -54 -32.5 -84.5t-92.5 -30.5q-58 0 -90 30.5t-32 84.5z" />
<glyph unicode="&#xc5;" horiz-adv-x="1019" d="M16 0l234 1272h520l234 -1272h-342l-39 201h-242l-39 -201h-326zM336 1495q0 74 47.5 116t120.5 42q78 0 123 -40t45 -108q0 -76 -45 -117.5t-123 -41.5q-73 0 -120.5 40.5t-47.5 108.5zM426 440h158l-72 455h-14zM461 1499q0 -55 43 -55t43 55q0 60 -43 60t-43 -60z" />
<glyph unicode="&#xc6;" horiz-adv-x="1429" d="M0 0l532 1272h869l-21 -314h-338v-190h293v-270h-293v-211h359l-21 -287h-688v201h-270l-78 -201h-344zM512 440h180v455h-14z" />
<glyph unicode="&#xc7;" horiz-adv-x="954" d="M51 618q0 314 155 507.5t396 193.5q118 0 195.5 -27.5t140.5 -93.5l-115 -307q-38 39 -63 60.5t-67 40t-89 18.5q-86 0 -139 -105t-53 -262q0 -161 53.5 -264t144.5 -103q70 0 118 25t97 80l115 -291q-122 -97 -307 -108q-10 -13 -10 -25q0 -9 20 -21t43.5 -24.5 t43.5 -39.5t20 -62q0 -70 -52.5 -113t-144.5 -43q-117 0 -203 65l74 144q30 -28 66.5 -48t62.5 -20q6 0 11 5t5 12q0 13 -22 26l-43 25q-43 25 -43 67q0 34 24 58q-194 31 -314 194t-120 436z" />
<glyph unicode="&#xc8;" horiz-adv-x="827" d="M90 0v1272h709l-21 -314h-338v-190h293v-270h-293v-211h359l-21 -287h-688zM162 1632h307l127 -272h-223z" />
<glyph unicode="&#xc9;" horiz-adv-x="827" d="M90 0v1272h709l-21 -314h-338v-190h293v-270h-293v-211h359l-21 -287h-688zM303 1360l123 272h311l-209 -272h-225z" />
<glyph unicode="&#xca;" horiz-adv-x="827" d="M90 0v1272h709l-21 -314h-338v-190h293v-270h-293v-211h359l-21 -287h-688zM158 1360l129 262h293l129 -262h-207l-68 108l-67 -108h-209z" />
<glyph unicode="&#xcb;" horiz-adv-x="827" d="M90 0v1272h709l-21 -314h-338v-190h293v-270h-293v-211h359l-21 -287h-688zM152 1473q0 52 31 82t85 30q62 0 95.5 -29.5t33.5 -82.5q0 -55 -33.5 -85t-95.5 -30q-54 0 -85 30.5t-31 84.5zM479 1473q0 52 33 82t90 30q60 0 92.5 -29.5t32.5 -82.5q0 -54 -32.5 -84.5 t-92.5 -30.5q-58 0 -90.5 30.5t-32.5 84.5z" />
<glyph unicode="&#xcc;" horiz-adv-x="557" d="M-43 1632h307l127 -272h-223zM80 0v1272h348v-1272h-348z" />
<glyph unicode="&#xcd;" horiz-adv-x="557" d="M88 0v1272h348v-1272h-348zM94 1360l123 272h311l-209 -272h-225z" />
<glyph unicode="&#xce;" horiz-adv-x="557" d="M-20 1360l129 262h292l129 -262h-206l-68 108l-68 -108h-208zM80 0v1272h348v-1272h-348z" />
<glyph unicode="&#xcf;" horiz-adv-x="557" d="M-33 1473q0 52 31.5 82t85.5 30q62 0 95.5 -29.5t33.5 -82.5q0 -55 -33.5 -85t-95.5 -30q-54 0 -85.5 30.5t-31.5 84.5zM80 0v1272h348v-1272h-348zM295 1473q0 52 33 82t90 30q60 0 92.5 -29.5t32.5 -82.5q0 -54 -32.5 -84.5t-92.5 -30.5q-58 0 -90.5 30.5t-32.5 84.5z " />
<glyph unicode="&#xd0;" horiz-adv-x="1077" d="M-23 512v242h113v518h430q116 0 205 -28.5t147.5 -79.5t95.5 -128t52.5 -167.5t15.5 -204.5q0 -117 -15 -213t-52.5 -181.5t-96.5 -143.5t-150 -92t-210 -34h-422v512h-113zM438 295h68q46 0 77.5 15t50 40t28.5 70.5t13 91t3 117.5t-3.5 120t-14 92t-30 68.5t-52 39 t-78.5 14.5h-62v-209h113v-242h-113v-217z" />
<glyph unicode="&#xd1;" horiz-adv-x="1112" d="M92 0v1272h346l252 -610h17v610h313v-1272h-336l-264 592h-17v-592h-311zM268 1341v21q0 126 37 189t129 63q20 0 45 -4t42 -8.5t46.5 -13t40.5 -11.5l39 -8v63h211v-16q0 -47 -3.5 -81t-14.5 -68t-29.5 -55.5t-51 -34.5t-77.5 -13q-61 0 -156 31l-47 16v-70h-211z" />
<glyph unicode="&#xd2;" horiz-adv-x="1101" d="M49 641q0 344 117.5 497.5t386.5 153.5q268 0 384 -152t116 -485q0 -349 -119 -512t-387 -163q-264 0 -381 162t-117 499zM258 1632h307l127 -272h-223zM406 600q0 -83 4 -135.5t13 -92t27.5 -59t43.5 -28.5t65 -9q88 0 114.5 60t26.5 246v65q0 189 -29 255.5t-124 66.5 q-88 0 -114.5 -66.5t-26.5 -253.5v-49z" />
<glyph unicode="&#xd3;" horiz-adv-x="1101" d="M49 641q0 344 117.5 497.5t386.5 153.5q268 0 384 -152t116 -485q0 -349 -119 -512t-387 -163q-264 0 -381 162t-117 499zM406 600q0 -83 4 -135.5t13 -92t27.5 -59t43.5 -28.5t65 -9q88 0 114.5 60t26.5 246v65q0 189 -29 255.5t-124 66.5q-88 0 -114.5 -66.5 t-26.5 -253.5v-49zM410 1360l122 272h312l-209 -272h-225z" />
<glyph unicode="&#xd4;" horiz-adv-x="1101" d="M49 641q0 344 117.5 497.5t386.5 153.5q268 0 384 -152t116 -485q0 -349 -119 -512t-387 -163q-264 0 -381 162t-117 499zM274 1360l129 262h293l129 -262h-207l-67 108l-68 -108h-209zM406 600q0 -83 4 -135.5t13 -92t27.5 -59t43.5 -28.5t65 -9q88 0 114.5 60t26.5 246 v65q0 189 -29 255.5t-124 66.5q-88 0 -114.5 -66.5t-26.5 -253.5v-49z" />
<glyph unicode="&#xd5;" horiz-adv-x="1101" d="M49 641q0 344 117.5 497.5t386.5 153.5q268 0 384 -152t116 -485q0 -349 -119 -512t-387 -163q-264 0 -381 162t-117 499zM242 1341v21q0 126 37 189t129 63q20 0 45 -4t42 -8.5t46.5 -13t40.5 -11.5l39 -8v63h210v-16q0 -47 -3.5 -81t-14.5 -68t-29.5 -55.5t-51 -34.5 t-77.5 -13q-60 0 -155 31l-47 16v-70h-211zM406 600q0 -83 4 -135.5t13 -92t27.5 -59t43.5 -28.5t65 -9q88 0 114.5 60t26.5 246v65q0 189 -29 255.5t-124 66.5q-88 0 -114.5 -66.5t-26.5 -253.5v-49z" />
<glyph unicode="&#xd6;" horiz-adv-x="1101" d="M49 641q0 344 117.5 497.5t386.5 153.5q268 0 384 -152t116 -485q0 -349 -119 -512t-387 -163q-264 0 -381 162t-117 499zM264 1473q0 52 31.5 82t85.5 30q62 0 95.5 -29.5t33.5 -82.5q0 -55 -33.5 -85t-95.5 -30q-54 0 -85.5 30.5t-31.5 84.5zM406 600q0 -83 4 -135.5 t13 -92t27.5 -59t43.5 -28.5t65 -9q88 0 114.5 60t26.5 246v65q0 189 -29 255.5t-124 66.5q-88 0 -114.5 -66.5t-26.5 -253.5v-49zM592 1473q0 52 33 82t90 30q60 0 92.5 -29.5t32.5 -82.5q0 -54 -32.5 -84.5t-92.5 -30.5q-58 0 -90.5 30.5t-32.5 84.5z" />
<glyph unicode="&#xd7;" horiz-adv-x="974" d="M106 412l205 196l-205 195l185 182l194 -203l195 203l188 -188l-202 -195l200 -194l-182 -183l-192 203l-197 -205z" />
<glyph unicode="&#xd8;" horiz-adv-x="1101" d="M49 641q0 344 117.5 497.5t386.5 153.5q53 0 102 -6l45 113h340l-102 -260q115 -149 115 -484q0 -349 -119 -512t-387 -163q-26 0 -66 4l-51 -129h-344l102 258q-139 157 -139 528zM406 612q0 -201 29.5 -268.5t123.5 -67.5q87 0 114 65t27 253v65q0 189 -29 255.5 t-124 66.5q-89 0 -115 -66.5t-26 -252.5v-50z" />
<glyph unicode="&#xd9;" horiz-adv-x="1112" d="M90 395v877h359v-854q0 -64 26 -94.5t86 -30.5q61 0 85 30t24 97v852h352v-873q0 -220 -120 -319.5t-355 -99.5q-229 0 -343 99t-114 316zM252 1632h307l127 -272h-223z" />
<glyph unicode="&#xda;" horiz-adv-x="1112" d="M90 395v877h359v-854q0 -64 26 -94.5t86 -30.5q61 0 85 30t24 97v852h352v-873q0 -220 -120 -319.5t-355 -99.5q-229 0 -343 99t-114 316zM436 1360l123 272h311l-208 -272h-226z" />
<glyph unicode="&#xdb;" horiz-adv-x="1112" d="M90 395v877h359v-854q0 -64 26 -94.5t86 -30.5q61 0 85 30t24 97v852h352v-873q0 -220 -120 -319.5t-355 -99.5q-229 0 -343 99t-114 316zM285 1360l129 262h293l129 -262h-207l-68 108l-67 -108h-209z" />
<glyph unicode="&#xdc;" horiz-adv-x="1112" d="M90 395v877h359v-854q0 -64 26 -94.5t86 -30.5q61 0 85 30t24 97v852h352v-873q0 -220 -120 -319.5t-355 -99.5q-229 0 -343 99t-114 316zM270 1473q0 52 31.5 82t85.5 30q62 0 95.5 -29.5t33.5 -82.5q0 -55 -33.5 -85t-95.5 -30q-54 0 -85.5 30.5t-31.5 84.5zM598 1473 q0 52 33 82t90 30q60 0 92.5 -29.5t32.5 -82.5q0 -54 -32.5 -84.5t-92.5 -30.5q-58 0 -90.5 30.5t-32.5 84.5z" />
<glyph unicode="&#xdd;" horiz-adv-x="950" d="M0 1272h385l92 -414h17l88 414h368l-303 -879v-393h-348v393zM362 1339l123 273h312l-209 -273h-226z" />
<glyph unicode="&#xde;" horiz-adv-x="946" d="M90 0v1272h344v-182h55q228 0 330.5 -100t102.5 -331q0 -227 -99 -326.5t-311 -99.5h-78v-233h-344zM434 475h41q56 0 75 35t19 125q0 91 -20.5 127.5t-81.5 36.5h-33v-324z" />
<glyph unicode="&#xdf;" horiz-adv-x="1032" d="M18 698v254h91v33q0 185 104.5 270.5t318.5 85.5q219 0 334 -95t115 -265q0 -100 -29 -167t-96 -116v-8q87 -44 127.5 -123t40.5 -200q0 -187 -87.5 -287t-264.5 -100q-64 0 -178 20l10 276q8 -1 23 -2.5t27.5 -2.5t23.5 -1q49 0 70.5 30t21.5 91q0 76 -44 110t-132 34 v256q70 0 100.5 31.5t30.5 97.5q0 120 -99 120q-75 0 -75 -79v-961h-342v698h-91z" />
<glyph unicode="&#xe0;" horiz-adv-x="892" d="M29 270q0 71 20.5 124t55 87t92 56.5t120 34.5t150.5 20v49q0 57 -57 57q-102 0 -308 -59l-51 299q263 68 451 68q159 0 229 -68t70 -213q0 -62 -5 -207t-5 -217q0 -38 19 -51.5t67 -13.5l-31 -248q-118 -8 -131 -8q-153 0 -193 104h-10q-38 -53 -90.5 -78.5 t-142.5 -25.5q-121 0 -185.5 77t-64.5 213zM147 1352h324l133 -287h-235zM342 295q0 -76 64 -76q75 0 75 80v100q-75 -10 -107 -31.5t-32 -72.5z" />
<glyph unicode="&#xe1;" horiz-adv-x="892" d="M29 270q0 71 20.5 124t55 87t92 56.5t120 34.5t150.5 20v49q0 57 -57 57q-102 0 -308 -59l-51 299q263 68 451 68q159 0 229 -68t70 -213q0 -62 -5 -207t-5 -217q0 -38 19 -51.5t67 -13.5l-31 -248q-118 -8 -131 -8q-153 0 -193 104h-10q-38 -53 -90.5 -78.5 t-142.5 -25.5q-121 0 -185.5 77t-64.5 213zM287 1065l129 287h327l-221 -287h-235zM342 295q0 -76 64 -76q75 0 75 80v100q-75 -10 -107 -31.5t-32 -72.5z" />
<glyph unicode="&#xe2;" horiz-adv-x="892" d="M29 270q0 71 20.5 124t55 87t92 56.5t120 34.5t150.5 20v49q0 57 -57 57q-102 0 -308 -59l-51 299q263 68 451 68q159 0 229 -68t70 -213q0 -62 -5 -207t-5 -217q0 -38 19 -51.5t67 -13.5l-31 -248q-118 -8 -131 -8q-153 0 -193 104h-10q-38 -53 -90.5 -78.5 t-142.5 -25.5q-121 0 -185.5 77t-64.5 213zM152 1065l135 276h309l135 -276h-217l-72 115l-71 -115h-219zM342 295q0 -76 64 -76q75 0 75 80v100q-75 -10 -107 -31.5t-32 -72.5z" />
<glyph unicode="&#xe3;" horiz-adv-x="892" d="M29 270q0 71 20.5 124t55 87t92 56.5t120 34.5t150.5 20v49q0 57 -57 57q-102 0 -308 -59l-51 299q263 68 451 68q159 0 229 -68t70 -213q0 -62 -5 -207t-5 -217q0 -38 19 -51.5t67 -13.5l-31 -248q-118 -8 -131 -8q-153 0 -193 104h-10q-38 -53 -90.5 -78.5 t-142.5 -25.5q-121 0 -185.5 77t-64.5 213zM115 1047v20q0 133 39 199.5t137 66.5q27 0 55.5 -5.5t73.5 -18.5t53 -15l41 -10v68h221v-17q0 -50 -3.5 -86t-14.5 -72t-31 -58t-54 -36t-81 -14q-71 0 -164 33l-49 16v-71h-223zM342 295q0 -76 64 -76q75 0 75 80v100 q-75 -10 -107 -31.5t-32 -72.5z" />
<glyph unicode="&#xe4;" horiz-adv-x="892" d="M29 270q0 71 20.5 124t55 87t92 56.5t120 34.5t150.5 20v49q0 57 -57 57q-102 0 -308 -59l-51 299q263 68 451 68q159 0 229 -68t70 -213q0 -62 -5 -207t-5 -217q0 -38 19 -51.5t67 -13.5l-31 -248q-118 -8 -131 -8q-153 0 -193 104h-10q-38 -53 -90.5 -78.5 t-142.5 -25.5q-121 0 -185.5 77t-64.5 213zM129 1184q0 55 34 87t91 32q65 0 100 -31.5t35 -87.5q0 -58 -35 -89.5t-100 -31.5q-57 0 -91 32t-34 89zM342 295q0 -76 64 -76q75 0 75 80v100q-75 -10 -107 -31.5t-32 -72.5zM475 1184q0 55 34.5 87t94.5 32q63 0 97 -31.5 t34 -87.5q0 -57 -34 -89t-97 -32q-61 0 -95 32t-34 89z" />
<glyph unicode="&#xe5;" horiz-adv-x="892" d="M29 270q0 71 20.5 124t55 87t92 56.5t120 34.5t150.5 20v49q0 57 -57 57q-102 0 -308 -59l-51 299q263 68 451 68q159 0 229 -68t70 -213q0 -62 -5 -207t-5 -217q0 -38 19 -51.5t67 -13.5l-31 -248q-118 -8 -131 -8q-153 0 -193 104h-10q-38 -53 -90.5 -78.5 t-142.5 -25.5q-121 0 -185.5 77t-64.5 213zM256 1208q0 77 49.5 121.5t126.5 44.5q82 0 129 -42t47 -113q0 -81 -46.5 -124.5t-129.5 -43.5q-78 0 -127 42.5t-49 114.5zM342 295q0 -76 64 -76q75 0 75 80v100q-75 -10 -107 -31.5t-32 -72.5zM387 1212q0 -59 45 -59t45 59 q0 62 -45 62t-45 -62z" />
<glyph unicode="&#xe6;" horiz-adv-x="1316" d="M29 270q0 71 20.5 124t55 87t92 56.5t120 34.5t150.5 20v49q0 57 -57 57q-102 0 -308 -59l-51 299q263 68 451 68q109 0 184 -52q87 52 207 52q212 0 302.5 -101.5t90.5 -290.5q0 -118 -12 -213h-469q0 -161 141 -161q18 0 35 1t37.5 4t33.5 5t39 8t35.5 8.5t42 10.5 t41.5 10l37 -250q-184 -57 -352 -57q-198 0 -295 126h-8q-56 -64 -124.5 -95t-178.5 -31q-123 0 -191.5 76t-68.5 214zM342 295q0 -76 64 -76q75 0 75 80v100q-75 -10 -107 -31.5t-32 -72.5zM799 571h178v50q0 48 -21 72t-71 24q-52 0 -69 -36.5t-17 -109.5z" />
<glyph unicode="&#xe7;" horiz-adv-x="706" d="M31 473q0 156 42.5 274t134 188.5t222.5 70.5q144 0 262 -50l-37 -292q-116 51 -184 51q-55 0 -75.5 -57.5t-20.5 -170.5q0 -118 19.5 -169.5t76.5 -51.5q77 0 180 23l37 -262q-117 -40 -221 -45q-14 -17 -14 -33q0 -12 20.5 -25.5t45 -26t45 -39t20.5 -61.5 q0 -67 -50.5 -107t-142.5 -40q-106 0 -194 59l69 129q83 -63 125 -63q25 0 25 20q0 18 -27 33l-35 20q-47 24 -47 74q0 31 31 66q-152 27 -229.5 154t-77.5 331z" />
<glyph unicode="&#xe8;" horiz-adv-x="909" d="M49 494q0 512 434 512q212 0 303 -101.5t91 -290.5q0 -11 -15 -221h-467q0 -153 142 -153q18 0 35 1t37.5 4t33.5 5t39 8t35.5 8.5t42 10.5t41.5 10l28 -254q-171 -53 -344 -53q-211 0 -323.5 138.5t-112.5 375.5zM197 1352h323l133 -287h-235zM389 567h178v49 q0 48 -21 72.5t-71 24.5q-52 0 -69 -36.5t-17 -109.5z" />
<glyph unicode="&#xe9;" horiz-adv-x="909" d="M49 494q0 512 434 512q212 0 303 -101.5t91 -290.5q0 -11 -15 -221h-467q0 -153 142 -153q18 0 35 1t37.5 4t33.5 5t39 8t35.5 8.5t42 10.5t41.5 10l28 -254q-171 -53 -344 -53q-211 0 -323.5 138.5t-112.5 375.5zM346 1065l129 287h328l-221 -287h-236zM389 567h178v49 q0 48 -21 72.5t-71 24.5q-52 0 -69 -36.5t-17 -109.5z" />
<glyph unicode="&#xea;" horiz-adv-x="909" d="M49 494q0 512 434 512q212 0 303 -101.5t91 -290.5q0 -11 -15 -221h-467q0 -153 142 -153q18 0 35 1t37.5 4t33.5 5t39 8t35.5 8.5t42 10.5t41.5 10l28 -254q-171 -53 -344 -53q-211 0 -323.5 138.5t-112.5 375.5zM197 1065l135 276h309l135 -276h-217l-72 115l-71 -115 h-219zM389 567h178v49q0 48 -21 72.5t-71 24.5q-52 0 -69 -36.5t-17 -109.5z" />
<glyph unicode="&#xeb;" horiz-adv-x="909" d="M49 494q0 512 434 512q212 0 303 -101.5t91 -290.5q0 -11 -15 -221h-467q0 -153 142 -153q18 0 35 1t37.5 4t33.5 5t39 8t35.5 8.5t42 10.5t41.5 10l28 -254q-171 -53 -344 -53q-211 0 -323.5 138.5t-112.5 375.5zM172 1184q0 55 34 87t91 32q65 0 100 -31.5t35 -87.5 q0 -58 -35 -89.5t-100 -31.5q-57 0 -91 32t-34 89zM389 567h178v49q0 48 -21 72.5t-71 24.5q-52 0 -69 -36.5t-17 -109.5zM518 1184q0 55 34.5 87t94.5 32q63 0 97 -31.5t34 -87.5q0 -57 -34 -89t-97 -32q-61 0 -95 32t-34 89z" />
<glyph unicode="&#xec;" horiz-adv-x="475" d="M-51 1352h323l134 -287h-236zM70 0v971h338v-971h-338z" />
<glyph unicode="&#xed;" horiz-adv-x="475" d="M68 0v971h338v-971h-338zM80 1065l129 287h328l-222 -287h-235z" />
<glyph unicode="&#xee;" horiz-adv-x="475" d="M-51 1065l135 276h309l135 -276h-217l-71 115l-72 -115h-219zM68 0v971h338v-971h-338z" />
<glyph unicode="&#xef;" horiz-adv-x="475" d="M-66 1184q0 55 34 87t91 32q65 0 100.5 -31.5t35.5 -87.5q0 -57 -35 -89t-101 -32q-57 0 -91 32t-34 89zM68 0v971h338v-971h-338zM281 1184q0 55 34.5 87t94.5 32q63 0 97 -31.5t34 -87.5q0 -57 -34 -89t-97 -32q-61 0 -95 32t-34 89z" />
<glyph unicode="&#xf0;" horiz-adv-x="966" d="M45 426q0 193 89 293t241 100q78 0 151 -12l6 6q-26 76 -81 123l-218 -113v189l46 24q-73 13 -150 13v268q161 0 261 -14.5t181 -47.5l191 95v-228l-33 -18q193 -193 193 -561q0 -286 -108.5 -424.5t-346.5 -138.5q-215 0 -318.5 111.5t-103.5 334.5zM389 401 q0 -78 18.5 -114.5t69.5 -36.5q28 0 46 13t26.5 40t11 54t2.5 69q0 74 -19 111.5t-67 37.5q-52 0 -70 -43.5t-18 -130.5z" />
<glyph unicode="&#xf1;" horiz-adv-x="968" d="M68 0v981h313l20 -72h9q114 97 256 97q127 0 181 -63t54 -187v-756h-348v639q0 51 -45 51q-57 0 -96 -28v-662h-344zM156 1047v20q0 133 39 199.5t137 66.5q27 0 55.5 -5.5t73.5 -18.5t53 -15l41 -10v68h221v-17q0 -50 -3.5 -86t-14.5 -72t-31 -58t-54 -36t-81 -14 q-70 0 -164 33l-49 16v-71h-223z" />
<glyph unicode="&#xf2;" horiz-adv-x="946" d="M49 494q0 269 103 390.5t325 121.5q219 0 319.5 -119t100.5 -379q0 -282 -98.5 -405t-321.5 -123q-224 0 -326 122.5t-102 391.5zM201 1352h323l133 -287h-235zM393 467q0 -145 14 -188t72 -43q48 0 62 42.5t14 176.5v59q0 133 -13.5 174t-66.5 41t-67.5 -41.5 t-14.5 -171.5v-49z" />
<glyph unicode="&#xf3;" horiz-adv-x="946" d="M49 494q0 269 103 390.5t325 121.5q219 0 319.5 -119t100.5 -379q0 -282 -98.5 -405t-321.5 -123q-224 0 -326 122.5t-102 391.5zM326 1065l129 287h327l-221 -287h-235zM393 467q0 -145 14 -188t72 -43q48 0 62 42.5t14 176.5v59q0 133 -13.5 174t-66.5 41t-67.5 -41.5 t-14.5 -171.5v-49z" />
<glyph unicode="&#xf4;" horiz-adv-x="946" d="M49 494q0 269 103 390.5t325 121.5q219 0 319.5 -119t100.5 -379q0 -282 -98.5 -405t-321.5 -123q-224 0 -326 122.5t-102 391.5zM186 1065l136 276h309l135 -276h-217l-72 115l-71 -115h-220zM393 467q0 -145 14 -188t72 -43q48 0 62 42.5t14 176.5v59q0 133 -13.5 174 t-66.5 41t-67.5 -41.5t-14.5 -171.5v-49z" />
<glyph unicode="&#xf5;" horiz-adv-x="946" d="M49 494q0 269 103 390.5t325 121.5q219 0 319.5 -119t100.5 -379q0 -282 -98.5 -405t-321.5 -123q-224 0 -326 122.5t-102 391.5zM160 1047v20q0 133 39 199.5t137 66.5q27 0 55.5 -5.5t73.5 -18.5t53 -15l41 -10v68h221v-17q0 -50 -3.5 -86t-14.5 -72t-31 -58t-54 -36 t-81 -14q-70 0 -164 33l-49 16v-71h-223zM393 467q0 -145 14 -188t72 -43q48 0 62 42.5t14 176.5v59q0 133 -13.5 174t-66.5 41t-67.5 -41.5t-14.5 -171.5v-49z" />
<glyph unicode="&#xf6;" horiz-adv-x="946" d="M49 494q0 269 103 390.5t325 121.5q219 0 319.5 -119t100.5 -379q0 -282 -98.5 -405t-321.5 -123q-224 0 -326 122.5t-102 391.5zM170 1184q0 55 34 87t91 32q65 0 100 -31.5t35 -87.5q0 -58 -35 -89.5t-100 -31.5q-57 0 -91 32t-34 89zM393 467q0 -145 14 -188t72 -43 q48 0 62 42.5t14 176.5v59q0 133 -13.5 174t-66.5 41t-67.5 -41.5t-14.5 -171.5v-49zM516 1184q0 55 34.5 87t94.5 32q63 0 97 -31.5t34 -87.5q0 -57 -34 -89t-97 -32q-61 0 -95 32t-34 89z" />
<glyph unicode="&#xf7;" horiz-adv-x="987" d="M106 473v258h775v-258h-775zM315 174q0 83 43.5 122.5t139.5 39.5q93 0 135.5 -40.5t42.5 -125.5q0 -158 -178 -158q-183 0 -183 162zM315 1022q0 83 43.5 122.5t139.5 39.5q93 0 135.5 -40.5t42.5 -125.5q0 -158 -178 -158q-183 0 -183 162z" />
<glyph unicode="&#xf8;" horiz-adv-x="911" d="M35 494q0 269 103 390.5t325 121.5q45 0 65 -2l50 122h268l-86 -217q123 -117 123 -401q0 -282 -98.5 -405t-321.5 -123q-24 0 -70 4l-49 -129h-272l88 221q-125 119 -125 418zM379 467q0 -145 14 -188t72 -43q48 0 62 42.5t14 176.5v59q0 133 -13.5 174t-66.5 41 t-67.5 -41.5t-14.5 -171.5v-49z" />
<glyph unicode="&#xf9;" horiz-adv-x="956" d="M61 250v731h349v-647q0 -51 45 -51q57 0 96 28v670h344v-977h-326v72h-8q-112 -96 -256 -96q-126 0 -185 72t-59 198zM166 1352h323l134 -287h-236z" />
<glyph unicode="&#xfa;" horiz-adv-x="956" d="M61 250v731h349v-647q0 -51 45 -51q57 0 96 28v670h344v-977h-326v72h-8q-112 -96 -256 -96q-126 0 -185 72t-59 198zM369 1065l129 287h327l-221 -287h-235z" />
<glyph unicode="&#xfb;" horiz-adv-x="956" d="M61 250v731h349v-647q0 -51 45 -51q57 0 96 28v670h344v-977h-326v72h-8q-112 -96 -256 -96q-126 0 -185 72t-59 198zM193 1065l135 276h309l135 -276h-217l-72 115l-71 -115h-219z" />
<glyph unicode="&#xfc;" horiz-adv-x="956" d="M61 250v731h349v-647q0 -51 45 -51q57 0 96 28v670h344v-977h-326v72h-8q-112 -96 -256 -96q-126 0 -185 72t-59 198zM174 1184q0 55 34 87t91 32q65 0 100 -31.5t35 -87.5q0 -58 -35 -89.5t-100 -31.5q-57 0 -91 32t-34 89zM520 1184q0 55 34.5 87t94.5 32 q63 0 97 -31.5t34 -87.5q0 -57 -34 -89t-97 -32q-61 0 -95 32t-34 89z" />
<glyph unicode="&#xfd;" horiz-adv-x="911" d="M0 981h365l92 -612h18l100 612h336l-254 -1010q-26 -103 -64 -159.5t-109 -84.5t-189 -28h-205l-31 264h115q38 0 54 13.5t16 41.5q0 14 -8 54zM352 1065l129 287h328l-221 -287h-236z" />
<glyph unicode="&#xfe;" horiz-adv-x="954" d="M61 -281v1594h342v-355h9q60 46 174 46q80 0 136.5 -20t92.5 -56.5t55.5 -99.5t27 -135.5t7.5 -178.5q0 -108 -8.5 -187t-30.5 -148t-60 -111.5t-98 -66.5t-143 -24q-93 0 -159 39v-297h-345zM401 264q40 -18 82 -18q19 0 32 6t22 22t13.5 31.5t7 48t3 58t0.5 73.5 q0 61 -2 96.5t-10 69t-24.5 48t-43.5 14.5q-35 0 -80 -25v-424z" />
<glyph unicode="&#xff;" horiz-adv-x="911" d="M0 981h365l92 -612h18l100 612h336l-254 -1010q-26 -103 -64 -159.5t-109 -84.5t-189 -28h-205l-31 264h115q38 0 54 13.5t16 41.5q0 14 -8 54zM135 1184q0 55 34 87t91 32q65 0 100 -31.5t35 -87.5q0 -58 -35 -89.5t-100 -31.5q-57 0 -91 32t-34 89zM481 1184 q0 55 34.5 87t94.5 32q63 0 97 -31.5t34 -87.5q0 -57 -34 -89t-97 -32q-61 0 -95 32t-34 89z" />
<glyph unicode="&#x152;" horiz-adv-x="1417" d="M51 641q0 344 117.5 497.5t386.5 153.5q91 0 176 -20h635v-301h-346q22 -87 31 -191h270v-270h-272q-9 -115 -37 -211h354v-299h-647q-82 -20 -170 -20q-264 0 -381 162t-117 499zM408 612q0 -201 29.5 -268.5t123.5 -67.5q87 0 114 65t27 253v65q0 189 -29 255.5 t-124 66.5q-89 0 -115 -66.5t-26 -252.5v-50z" />
<glyph unicode="&#x153;" horiz-adv-x="1400" d="M35 494q0 269 103 390.5t325 121.5q176 0 258 -82q88 82 256 82q212 0 302.5 -101.5t90.5 -290.5q0 -118 -12 -213h-469q0 -161 141 -161q18 0 35 1t37.5 4t33.5 5t39 8t35.5 8.5t42 10.5t41.5 10l37 -250q-184 -57 -352 -57q-164 0 -252 88q-79 -88 -264 -88 q-224 0 -326 122.5t-102 391.5zM379 467q0 -145 14 -188t72 -43q48 0 62 42.5t14 176.5v59q0 133 -13.5 174t-66.5 41t-67.5 -41.5t-14.5 -171.5v-49zM883 571h178v50q0 48 -21 72t-71 24q-52 0 -69 -36.5t-17 -109.5z" />
<glyph unicode="&#x178;" horiz-adv-x="950" d="M0 1272h385l92 -414h17l88 414h368l-303 -879v-393h-348v393zM195 1473q0 52 31 82t85 30q62 0 95.5 -29.5t33.5 -82.5q0 -55 -33.5 -85t-95.5 -30q-54 0 -85 30.5t-31 84.5zM522 1473q0 52 33 82t90 30q60 0 92.5 -29.5t32.5 -82.5q0 -54 -32.5 -84.5t-92.5 -30.5 q-58 0 -90.5 30.5t-32.5 84.5z" />
<glyph unicode="&#x2c6;" d="M236 1065l135 276h309l135 -276h-217l-72 115l-71 -115h-219z" />
<glyph unicode="&#x2dc;" d="M215 1047v20q0 133 39 199.5t137 66.5q27 0 55.5 -5.5t73.5 -18.5t53 -15l41 -10v68h222v-17q0 -50 -3.5 -86t-15 -72t-31.5 -58t-54 -36t-81 -14q-71 0 -164 33l-49 16v-71h-223z" />
<glyph unicode="&#x2000;" horiz-adv-x="826" />
<glyph unicode="&#x2001;" horiz-adv-x="1653" />
<glyph unicode="&#x2002;" horiz-adv-x="826" />
<glyph unicode="&#x2003;" horiz-adv-x="1653" />
<glyph unicode="&#x2004;" horiz-adv-x="551" />
<glyph unicode="&#x2005;" horiz-adv-x="413" />
<glyph unicode="&#x2006;" horiz-adv-x="275" />
<glyph unicode="&#x2007;" horiz-adv-x="275" />
<glyph unicode="&#x2008;" horiz-adv-x="206" />
<glyph unicode="&#x2009;" horiz-adv-x="330" />
<glyph unicode="&#x200a;" horiz-adv-x="91" />
<glyph unicode="&#x2010;" horiz-adv-x="825" d="M98 395v275h629v-275h-629z" />
<glyph unicode="&#x2011;" horiz-adv-x="825" d="M98 395v275h629v-275h-629z" />
<glyph unicode="&#x2012;" horiz-adv-x="825" d="M98 395v275h629v-275h-629z" />
<glyph unicode="&#x2013;" horiz-adv-x="878" d="M98 381v274h682v-274h-682z" />
<glyph unicode="&#x2014;" horiz-adv-x="1308" d="M98 381v274h1112v-274h-1112z" />
<glyph unicode="&#x2018;" horiz-adv-x="485" d="M29 977q0 107 66.5 189.5t191.5 160.5l121 -45l-127 -166l4 -10q108 -23 108 -150q0 -161 -182 -161t-182 182z" />
<glyph unicode="&#x2019;" horiz-adv-x="485" d="M78 825l127 166l-4 10q-109 23 -109 150q0 162 182 162q91 0 137 -47t46 -136q0 -107 -66.5 -189.5t-191.5 -160.5z" />
<glyph unicode="&#x201a;" horiz-adv-x="485" d="M78 -199l127 166l-4 10q-109 23 -109 150q0 162 182 162q91 0 137 -47t46 -136q0 -107 -66.5 -189.5t-191.5 -160.5z" />
<glyph unicode="&#x201c;" horiz-adv-x="894" d="M29 977q0 107 66.5 189.5t191.5 160.5l121 -45l-127 -166l4 -10q108 -23 108 -150q0 -161 -182 -161t-182 182zM438 977q0 107 66.5 189.5t191.5 160.5l121 -45l-127 -166l4 -10q109 -23 109 -150q0 -161 -182 -161q-183 0 -183 182z" />
<glyph unicode="&#x201d;" horiz-adv-x="894" d="M29 825l127 166l-4 10q-109 23 -109 150q0 162 182 162q91 0 137 -47t46 -136q0 -107 -66.5 -189.5t-191.5 -160.5zM438 825l127 166l-4 10q-108 23 -108 150q0 162 182 162t182 -183q0 -107 -66.5 -189.5t-191.5 -160.5z" />
<glyph unicode="&#x201e;" horiz-adv-x="894" d="M78 -199l127 166l-4 10q-109 23 -109 150q0 162 182 162q91 0 137 -47t46 -136q0 -107 -66.5 -189.5t-191.5 -160.5zM487 -199l127 166l-4 10q-108 23 -108 150q0 162 182 162t182 -183q0 -107 -66.5 -189.5t-191.5 -160.5z" />
<glyph unicode="&#x2022;" horiz-adv-x="845" d="M168 618q0 263 260 263q250 0 250 -263q0 -268 -250 -268q-260 0 -260 268z" />
<glyph unicode="&#x2026;" horiz-adv-x="1601" d="M135 139q0 83 43 122.5t139 39.5q93 0 136 -40.5t43 -125.5q0 -158 -179 -158q-182 0 -182 162zM616 139q0 83 43.5 122.5t139.5 39.5q93 0 135.5 -40.5t42.5 -125.5q0 -158 -178 -158q-183 0 -183 162zM1106 139q0 83 43 122.5t139 39.5q93 0 135.5 -40.5t42.5 -125.5 q0 -158 -178 -158q-182 0 -182 162z" />
<glyph unicode="&#x202f;" horiz-adv-x="330" />
<glyph unicode="&#x2039;" horiz-adv-x="651" d="M49 424v127l361 426l153 -123l-215 -358l217 -359l-168 -129z" />
<glyph unicode="&#x203a;" horiz-adv-x="649" d="M86 137l217 359l-215 358l158 123l354 -426v-127l-342 -416z" />
<glyph unicode="&#x205f;" horiz-adv-x="413" />
<glyph unicode="&#x20ac;" horiz-adv-x="1021" d="M49 387v199h111v63h-111v203h123q35 216 151 328t330 112q156 0 297 -65l-55 -318q-160 54 -223 54q-54 0 -87 -27t-50 -84h352l-21 -203h-354v-63h350l-12 -199h-311q19 -51 52 -74.5t87 -23.5q73 0 219 39l53 -289q-159 -59 -325 -59q-378 0 -451 407h-125z" />
<glyph unicode="&#x2122;" horiz-adv-x="1169" d="M49 1102l10 170h420l-10 -170h-119v-529h-176v529h-125zM494 573l24 699h230l57 -379h8l55 379h228l24 -699h-164v365h-8l-61 -365h-164l-57 365h-11v-365h-161z" />
<glyph unicode="&#xe000;" horiz-adv-x="983" d="M0 0v983h983v-983h-983z" />
<glyph unicode="&#xfb01;" horiz-adv-x="1046" d="M18 698v254h91v103q0 132 68.5 202t207.5 70q95 0 209 -8l-25 -299q-71 6 -86 6q-37 0 -37 -37v-37h533v-952h-338v698h-190v-698h-342v698h-91zM625 1167q0 83 43 121.5t143 38.5q97 0 139.5 -38.5t42.5 -121.5q0 -79 -42.5 -117t-139.5 -38q-100 0 -143 37t-43 118z " />
<glyph unicode="&#xfb02;" horiz-adv-x="1056" d="M18 698v254h91v117q0 132 68.5 202t207.5 70q111 0 209 -8l-25 -299q-71 6 -86 6q-20 0 -28.5 -8.5t-8.5 -27.5v-52h195v361h338v-979q0 -34 16 -49t54 -15l-27 -290h-113q-135 0 -201.5 56.5t-66.5 188.5v473h-190v-698h-342v698h-91z" />
<glyph unicode="&#xfb03;" horiz-adv-x="1566" d="M18 698v254h91v117q0 132 68.5 202t207.5 70q73 0 209 -8l-25 -299q-67 6 -86 6q-20 0 -28.5 -8.5t-8.5 -27.5v-52h195v117q0 131 69 201.5t208 70.5q94 0 208 -8l-24 -299q-71 6 -86 6q-20 0 -28.5 -8.5t-8.5 -27.5v-52h532v-952h-337v698h-191v-698h-342v698h-190v-698 h-342v698h-91zM1145 1180q0 83 43 121t143 38q97 0 139.5 -38t42.5 -121q0 -80 -43 -118t-139 -38q-100 0 -143 37.5t-43 118.5z" />
<glyph unicode="&#xfb04;" horiz-adv-x="1589" d="M18 698v254h91v117q0 132 68.5 202t207.5 70q73 0 209 -8l-25 -299q-67 6 -86 6q-20 0 -28.5 -8.5t-8.5 -27.5v-52h195v117q0 131 69 201.5t208 70.5q110 0 208 -8l-24 -299q-71 6 -86 6q-20 0 -28.5 -8.5t-8.5 -27.5v-52h195v361h337v-979q0 -34 16 -49t54 -15l-27 -290 h-112q-135 0 -201.5 56.5t-66.5 188.5v473h-191v-698h-342v698h-190v-698h-342v698h-91z" />
</font>
</defs>
</svg>
